<?xml version="1.0" standalone="no"?>
<!DOCTYPE svg PUBLIC "-//W3C//DTD SVG 20010904//EN"
 "http://www.w3.org/TR/2001/REC-SVG-20010904/DTD/svg10.dtd">
<svg version="1.0" xmlns="http://www.w3.org/2000/svg"
 width="80 .000000pt" height="60.000000pt" viewBox="0 0 300.000000 300.000000"
 preserveAspectRatio="xMidYMid meet">
<metadata>
</metadata>
<g transform="translate(0.000000,300.000000) scale(0.100000,-0.100000)"
fill="#DCCA87" stroke="none">
<path d="M1454 2608 c4 -13 9 -60 13 -105 7 -100 -9 -209 -48 -320 -96 -275
-107 -309 -90 -299 5 4 17 28 26 54 10 26 33 88 53 137 61 157 93 311 88 434
-2 39 -1 71 1 71 31 0 116 -94 168 -185 60 -106 127 -202 266 -380 129 -165
164 -294 123 -450 -21 -84 -83 -185 -113 -185 -13 0 -13 -2 -15 132 -1 98 -3
109 -24 130 l-23 23 16 -37 c10 -26 15 -71 15 -153 0 -136 9 -149 67 -94 72
69 120 219 109 346 -9 116 -35 168 -181 362 -73 97 -163 226 -199 286 -37 61
-83 129 -102 153 -69 83 -165 134 -150 80z"/>
<path d="M960 2292 c-36 -14 -67 -26 -69 -28 -4 -3 106 -107 119 -112 7 -3 25
157 18 162 -2 2 -32 -8 -68 -22z m40 -47 c0 -26 -18 -33 -37 -14 -16 16 -5 39
18 39 14 0 19 -7 19 -25z"/>
<path d="M1168 2271 c-7 -75 -76 -211 -151 -299 -68 -81 -107 -175 -107 -257
0 -58 26 -140 64 -200 55 -84 61 -84 62 -2 1 40 9 92 18 116 12 33 13 41 2 32
-7 -6 -19 -33 -26 -59 -7 -26 -14 -55 -17 -64 -7 -30 -30 -8 -55 50 -35 87
-32 178 9 262 18 36 51 87 73 114 53 63 100 144 131 224 13 34 27 62 30 62 28
0 75 -150 84 -265 8 -89 11 -99 20 -62 11 41 -14 204 -40 269 -25 61 -69 128
-84 128 -5 0 -11 -22 -13 -49z"/>
<path d="M680 2159 c-58 -38 -113 -72 -122 -75 -10 -3 -18 -9 -18 -12 0 -6
284 -172 294 -172 2 0 0 19 -5 43 -5 23 -17 97 -27 164 l-17 122 -105 -70z
m96 -25 c6 -22 15 -73 19 -113 7 -71 7 -73 -14 -66 -12 3 -60 30 -107 58 l-85
52 33 28 c18 16 50 37 70 48 20 10 40 24 43 29 12 20 29 4 41 -36z"/>
<path d="M2013 2221 l-42 -6 44 -74 c24 -40 46 -75 48 -77 3 -3 24 47 62 149
6 14 1 17 -31 15 -22 0 -58 -4 -81 -7z m70 -27 c7 -7 -12 -64 -22 -64 -13 0
-34 47 -27 59 8 12 39 15 49 5z"/>
<path d="M2234 2068 c-20 -40 -47 -89 -60 -110 -13 -21 -24 -40 -24 -42 0 -2
24 2 53 9 28 7 86 19 127 26 41 7 77 13 78 15 2 1 -24 37 -57 80 -34 42 -61
81 -61 85 0 27 -24 0 -56 -63z m91 -24 c25 -34 32 -50 25 -59 -14 -17 -121
-38 -133 -26 -11 11 36 117 55 124 7 3 14 6 15 6 1 1 18 -20 38 -45z"/>
<path d="M1627 1778 c-68 -69 -94 -182 -58 -262 11 -27 18 -53 15 -58 -11 -18
-109 -1 -151 25 -22 14 -55 48 -73 76 -39 62 -51 60 -21 -3 45 -92 176 -150
265 -116 l26 9 -31 50 c-44 70 -39 138 16 231 l39 65 23 -51 c13 -28 30 -82
39 -120 34 -145 56 -224 64 -224 10 0 94 239 86 247 -6 6 -36 -57 -36 -76 0
-19 -40 -101 -49 -101 -5 0 -17 35 -26 78 -25 114 -54 200 -80 230 l-22 26
-26 -26z"/>
<path d="M1086 1643 c23 -94 73 -176 126 -207 33 -20 38 -20 38 3 0 19 16 68
45 136 14 33 14 37 2 27 -8 -7 -28 -42 -43 -77 -16 -36 -31 -65 -35 -65 -3 0
-19 12 -34 27 -30 30 -56 77 -74 135 -15 45 -35 63 -25 21z"/>
<path d="M1220 1316 c-274 -32 -527 -108 -636 -191 -18 -14 -35 -25 -37 -25
-10 0 -103 128 -112 155 -6 17 -22 36 -40 44 -36 17 -56 7 -169 -87 -86 -71
-97 -102 -51 -147 28 -29 61 -32 93 -9 23 16 25 14 115 -81 50 -54 100 -116
109 -138 40 -88 190 -203 369 -282 209 -92 395 -129 659 -129 204 -1 307 13
485 66 245 72 485 231 538 355 6 16 54 74 104 128 88 93 94 98 111 82 27 -24
69 -21 97 8 27 26 31 54 15 85 -14 26 -190 160 -211 160 -24 0 -69 -38 -69
-59 0 -13 -65 -105 -106 -150 -2 -3 -14 5 -27 16 -55 51 -243 127 -394 158
-230 49 -617 67 -843 41z m622 -31 c235 -27 407 -77 553 -160 43 -25 84 -45
92 -45 7 0 13 -7 13 -15 0 -28 40 -96 61 -103 20 -8 20 -8 1 -32 -10 -14 -30
-45 -44 -70 -64 -110 -250 -244 -428 -309 -19 -7 -44 -17 -55 -21 -95 -41
-348 -80 -516 -80 -188 0 -461 47 -574 99 -11 5 -51 23 -88 40 -87 39 -220
126 -274 179 -23 23 -53 63 -67 89 -13 26 -33 57 -45 67 -26 24 -26 32 -2 39
27 7 54 52 55 92 1 26 4 31 16 25 9 -5 29 2 57 22 129 88 384 164 619 184 43
4 81 8 83 10 12 11 432 2 543 -11z m-1444 -28 c17 -21 23 -67 7 -61 -7 3 -30
-11 -50 -32 -27 -27 -36 -43 -32 -60 4 -22 3 -22 -22 -9 -39 20 -71 54 -71 73
1 21 108 101 136 102 12 0 26 -6 32 -13z m2343 -33 c32 -26 59 -52 59 -57 0
-16 -62 -77 -77 -77 -7 0 -13 7 -13 15 0 25 -40 73 -71 86 -33 13 -36 25 -13
57 23 33 49 27 115 -24z m-2282 -112 c42 -50 43 -54 31 -85 -7 -17 -16 -36
-20 -40 -4 -4 -34 23 -68 61 l-61 69 32 31 c17 18 34 28 37 24 4 -4 26 -31 49
-60z m2181 -52 c-73 -85 -72 -84 -96 -41 l-21 38 51 62 50 61 33 -31 32 -32
-49 -57z m206 46 c-7 -29 -50 -46 -69 -27 -8 8 -7 15 6 28 11 12 17 13 17 5 0
-7 5 -10 10 -7 6 3 10 18 10 33 0 24 1 25 16 10 11 -11 14 -25 10 -42z m-2630
22 c-1 -18 4 -22 22 -20 18 1 23 -2 20 -15 -4 -22 -44 -29 -64 -13 -14 13 -19
51 -7 63 14 15 30 6 29 -15z"/>
</g>
</svg>
